<svg width="266.2517150878906px" height="112.16000366210938px" xmlns="http://www.w3.org/2000/svg" viewBox="116.8741424560547 18.919998168945312 266.2517150878906 112.16000366210938" style="background: none;" preserveAspectRatio="xMidYMid"><defs><filter id="editing-hover" x="-100%" y="-100%" width="300%" height="300%"><feFlood flood-color="#a24124" result="flood"></feFlood><feComposite operator="in" in2="SourceAlpha" in="flood" result="shadow"></feComposite><feOffset dx="-0.6" dy="-1.3" in="SourceGraphic" result="offset-1"></feOffset><feOffset dx="0.6" dy="1.3" in="shadow" result="offset-2"></feOffset><feMerge><feMergeNode in="offset-2"></feMergeNode><feMergeNode in="offset-1"></feMergeNode></feMerge></filter></defs><g filter="url(#editing-hover)"><g transform="translate(161.9806671142578, 98.84000205993652)"><path d="M27.33-13.76L27.33-13.76Q25.79-10.24 23.90-7.65L23.90-7.65L23.90-7.65Q22.02-5.06 19.94-3.30L19.94-3.30L19.94-3.30Q17.86-1.54 15.74-0.70L15.74-0.70L15.74-0.70Q13.63 0.13 11.65 0.13L11.65 0.13L11.65 0.13Q9.66 0.13 8.03-0.77L8.03-0.77L8.03-0.77Q6.40-1.66 5.18-3.46L5.18-3.46L5.18-3.46Q3.97-5.25 3.23-7.87L3.23-7.87L3.23-7.87Q2.50-10.50 2.50-14.02L2.50-14.02L2.50-14.02Q2.50-20.03 4.16-25.89L4.16-25.89L4.16-25.89Q5.82-31.74 8.83-36.42L8.83-36.42L8.83-36.42Q11.84-41.09 15.97-43.94L15.97-43.94L15.97-43.94Q20.10-46.78 25.09-46.78L25.09-46.78L25.09-46.78Q26.62-46.78 28.03-46.14L28.03-46.14L28.03-46.14Q29.44-45.50 30.46-44.35L30.46-44.35L30.46-44.35Q31.49-43.20 32.10-41.54L32.10-41.54L32.10-41.54Q32.70-39.87 32.70-37.82L32.70-37.82L32.70-37.82Q32.70-37.44 32.70-37.02L32.70-37.02L32.70-37.02Q32.70-36.61 32.64-36.16L32.64-36.16L24.26-33.92L24.26-33.92Q23.49-35.52 22.46-35.52L22.46-35.52L22.46-35.52Q21.44-35.52 20.32-34.34L20.32-34.34L20.32-34.34Q19.20-33.15 18.11-31.26L18.11-31.26L18.11-31.26Q17.02-29.38 16-27.04L16-27.04L16-27.04Q14.98-24.70 14.21-22.34L14.21-22.34L14.21-22.34Q13.44-19.97 12.96-17.82L12.96-17.82L12.96-17.82Q12.48-15.68 12.48-14.34L12.48-14.34L12.48-14.34Q12.48-12.29 13.02-11.46L13.02-11.46L13.02-11.46Q13.57-10.62 14.46-10.62L14.46-10.62L14.46-10.62Q15.17-10.62 16.06-11.17L16.06-11.17L16.06-11.17Q16.96-11.71 17.73-12.58L17.73-12.58L17.73-12.58Q18.50-13.44 19.14-14.53L19.14-14.53L19.14-14.53Q19.78-15.62 20.03-16.70L20.03-16.70L27.33-13.76ZM50.05-1.28L50.05-1.28Q48.45-1.02 46.53-0.70L46.53-0.70L46.53-0.70Q44.61-0.38 43.07-0.13L43.07-0.13L43.07-0.13Q43.33-2.24 43.58-4.29L43.58-4.29L43.58-4.29Q43.78-6.08 43.94-7.87L43.94-7.87L43.94-7.87Q44.10-9.66 44.22-10.94L44.22-10.94L38.66-10.94L36.10-1.73L36.10-1.73Q34.69-1.54 32.77-1.31L32.77-1.31L32.77-1.31Q30.85-1.09 29.18-0.90L29.18-0.90L29.18-0.90Q27.14-0.64 25.15-0.38L25.15-0.38L25.15-0.38Q27.71-8.90 30.21-17.15L30.21-17.15L30.21-17.15Q31.23-20.61 32.35-24.38L32.35-24.38L32.35-24.38Q33.47-28.16 34.59-31.90L34.59-31.90L34.59-31.90Q35.71-35.65 36.74-39.10L36.74-39.10L36.74-39.10Q37.76-42.56 38.53-45.44L38.53-45.44L38.53-45.44Q42.88-45.76 47.39-46.21L47.39-46.21L47.39-46.21Q51.90-46.66 56.19-47.42L56.19-47.42L56.19-47.42Q56-45.38 55.78-42.34L55.78-42.34L55.78-42.34Q55.55-39.30 55.36-35.71L55.36-35.71L55.36-35.71Q55.17-32.13 54.98-28.22L54.98-28.22L54.98-28.22Q54.78-24.32 54.59-20.54L54.59-20.54L54.59-20.54Q54.27-11.71 53.89-1.79L53.89-1.79L53.89-1.79Q51.97-1.47 50.05-1.28L50.05-1.28ZM44.16-33.41L40.19-17.34L40.19-17.34Q40.45-17.34 41.12-17.38L41.12-17.38L41.12-17.38Q41.79-17.41 42.53-17.44L42.53-17.44L42.53-17.44Q43.26-17.47 43.90-17.50L43.90-17.50L43.90-17.50Q44.54-17.54 44.80-17.60L44.80-17.60L44.80-17.60Q44.80-17.98 44.90-18.91L44.90-18.91L44.90-18.91Q44.99-19.84 45.09-21.02L45.09-21.02L45.09-21.02Q45.18-22.21 45.31-23.62L45.31-23.62L45.31-23.62Q45.44-25.02 45.57-26.37L45.57-26.37L45.57-26.37Q45.82-29.63 46.21-33.41L46.21-33.41L46.59-38.98L45.63-38.91L44.16-33.41ZM64.83-2.62L54.46 0.06L54.46 0.06Q56.19-8.45 57.79-16.58L57.79-16.58L57.79-16.58Q58.37-20.03 59.07-23.78L59.07-23.78L59.07-23.78Q59.78-27.52 60.38-31.20L60.38-31.20L60.38-31.20Q60.99-34.88 61.54-38.30L61.54-38.30L61.54-38.30Q62.08-41.73 62.40-44.54L62.40-44.54L62.40-44.54Q66.05-45.70 70.27-46.24L70.27-46.24L70.27-46.24Q74.50-46.78 78.66-46.78L78.66-46.78L78.66-46.78Q81.15-46.78 82.78-46.21L82.78-46.21L82.78-46.21Q84.42-45.63 85.34-44.58L85.34-44.58L85.34-44.58Q86.27-43.52 86.66-42.11L86.66-42.11L86.66-42.11Q87.04-40.70 87.04-38.98L87.04-38.98L87.04-38.98Q87.04-36.42 86.14-33.95L86.14-33.95L86.14-33.95Q85.25-31.49 83.74-29.28L83.74-29.28L83.74-29.28Q82.24-27.07 80.29-25.25L80.29-25.25L80.29-25.25Q78.34-23.42 76.10-22.27L76.10-22.27L76.10-22.27Q77.25-19.71 78.56-16.67L78.56-16.67L78.56-16.67Q79.87-13.63 81.02-10.88L81.02-10.88L81.02-10.88Q82.30-7.68 83.65-4.48L83.65-4.48L73.73-1.02L73.73-1.02Q72.45-5.12 71.42-8.70L71.42-8.70L71.42-8.70Q70.98-10.18 70.53-11.74L70.53-11.74L70.53-11.74Q70.08-13.31 69.70-14.72L69.70-14.72L69.70-14.72Q69.31-16.13 69.06-17.25L69.06-17.25L69.06-17.25Q68.80-18.37 68.74-19.07L68.74-19.07L67.90-18.82L67.90-18.82Q67.52-16.77 66.98-14.02L66.98-14.02L66.98-14.02Q66.43-11.26 65.98-8.70L65.98-8.70L65.98-8.70Q65.41-5.70 64.83-2.62L64.83-2.62ZM71.55-37.89L69.50-27.71L69.50-27.71Q70.72-27.84 72.48-28.74L72.48-28.74L72.48-28.74Q74.24-29.63 75.84-30.88L75.84-30.88L75.84-30.88Q77.44-32.13 78.59-33.47L78.59-33.47L78.59-33.47Q79.74-34.82 79.74-35.84L79.74-35.84L79.74-35.84Q79.74-36.54 79.30-36.96L79.30-36.96L79.30-36.96Q78.85-37.38 78.05-37.60L78.05-37.60L78.05-37.60Q77.25-37.82 76.29-37.89L76.29-37.89L76.29-37.89Q75.33-37.95 74.30-37.95L74.30-37.95L74.30-37.95Q73.60-37.95 72.86-37.92L72.86-37.92L72.86-37.92Q72.13-37.89 71.55-37.89L71.55-37.89ZM111.04-2.11L97.73 0.26L102.59-45.18L102.59-45.18Q105.60-45.31 108.26-45.79L108.26-45.79L108.26-45.79Q110.91-46.27 113.54-46.46L113.54-46.46L113.54-46.46Q113.54-46.40 113.34-45.15L113.34-45.15L113.34-45.15Q113.15-43.90 112.83-41.89L112.83-41.89L112.83-41.89Q112.51-39.87 112.13-37.34L112.13-37.34L112.13-37.34Q111.74-34.82 111.01-30.40L111.01-30.40L111.01-30.40Q110.27-25.98 109.06-18.18L109.06-18.18L110.02-18.18L110.02-18.18Q111.68-24.06 112.77-27.81L112.77-27.81L112.77-27.81Q113.86-31.55 114.53-33.89L114.53-33.89L114.53-33.89Q115.20-36.22 115.81-38.40L115.81-38.40L115.81-38.40Q116.42-40.58 116.96-42.43L116.96-42.43L116.96-42.43Q117.50-44.29 117.82-45.57L117.82-45.57L118.40-45.57L118.40-45.57Q119.55-45.57 120.74-45.70L120.74-45.70L120.74-45.70Q121.92-45.82 122.98-45.98L122.98-45.98L122.98-45.98Q124.03-46.14 125.18-46.40L125.18-46.40L125.18-46.40Q125.06-45.82 124.90-44.03L124.90-44.03L124.90-44.03Q124.74-42.24 124.48-39.71L124.48-39.71L124.48-39.71Q124.22-37.18 123.97-34.14L123.97-34.14L123.97-34.14Q123.71-31.10 123.46-28.19L123.46-28.19L123.46-28.19Q123.20-25.28 122.98-22.66L122.98-22.66L122.98-22.66Q122.75-20.03 122.56-18.18L122.56-18.18L123.71-18.18L129.79-45.70L129.79-45.70Q131.97-46.02 134.08-46.27L134.08-46.27L134.08-46.27Q135.94-46.53 137.92-46.78L137.92-46.78L137.92-46.78Q139.90-47.04 141.44-47.36L141.44-47.36L141.44-47.36Q140.48-44.67 139.52-41.38L139.52-41.38L139.52-41.38Q138.56-38.08 137.54-34.43L137.54-34.43L137.54-34.43Q136.51-30.78 135.58-27.07L135.58-27.07L135.58-27.07Q134.66-23.36 133.76-19.90L133.76-19.90L133.76-19.90Q131.71-11.71 129.79-3.07L129.79-3.07L115.33-0.64L118.14-25.34L117.38-25.34L111.04-2.11ZM144.45-1.28L144.45-1.28Q143.87-1.28 142.18-1.12L142.18-1.12L142.18-1.12Q140.48-0.96 138.69-0.74L138.69-0.74L138.69-0.74Q136.90-0.51 135.46-0.32L135.46-0.32L135.46-0.32Q134.02-0.13 133.89-0.06L133.89-0.06L133.89-0.06Q134.53-2.82 135.20-6.18L135.20-6.18L135.20-6.18Q135.87-9.54 136.58-13.22L136.58-13.22L136.58-13.22Q137.28-16.90 137.92-20.67L137.92-20.67L137.92-20.67Q138.56-24.45 139.14-27.97L139.14-27.97L139.14-27.97Q140.48-36.16 141.82-44.80L141.82-44.80L151.81-46.40L151.81-46.40Q150.34-37.82 148.93-29.57L148.93-29.57L148.93-29.57Q148.35-26.05 147.74-22.27L147.74-22.27L147.74-22.27Q147.14-18.50 146.53-14.78L146.53-14.78L146.53-14.78Q145.92-11.07 145.41-7.58L145.41-7.58L145.41-7.58Q144.90-4.10 144.45-1.28L144.45-1.28ZM174.08-2.56L174.08-2.56Q173.50-2.56 171.65-2.50L171.65-2.50L171.65-2.50Q169.79-2.43 167.26-2.30L167.26-2.30L167.26-2.30Q164.74-2.18 161.79-1.98L161.79-1.98L161.79-1.98Q158.85-1.79 156.03-1.57L156.03-1.57L156.03-1.57Q153.22-1.34 150.82-1.09L150.82-1.09L150.82-1.09Q148.42-0.83 147.01-0.58L147.01-0.58L147.07-9.92L165.25-34.69L165.25-34.69Q164.16-34.69 162.18-34.46L162.18-34.46L162.18-34.46Q160.19-34.24 158.18-33.98L158.18-33.98L158.18-33.98Q156.16-33.73 154.69-33.47L154.69-33.47L153.15-33.34L154.37-43.39L180.54-45.25L178.88-36.42L161.41-11.58L161.41-11.58Q162.69-11.58 164.83-11.71L164.83-11.71L164.83-11.71Q166.98-11.84 169.28-11.97L169.28-11.97L169.28-11.97Q171.58-12.10 174.27-12.29L174.27-12.29L174.08-2.56Z" fill="#fefefe"></path></g></g><style>text {
  font-size: 64px;
  font-family: Arial Black;
  dominant-baseline: central;
  text-anchor: middle;
}</style></svg>